<svg xmlns="http://www.w3.org/2000/svg" viewBox="0 0 44 20"><path d="M25.8 3.8h-7.6v12.4h7.6V3.8z" fill="#ff5f00"/><path d="M19 10c0-1.2.3-2.4.8-3.4.5-1.1 1.3-2 2.2-2.7-1.2-.9-2.6-1.5-4-1.6-1.5-.3-3 0-4.3.6s-2.4 1.6-3.2 2.9S9.3 8.5 9.3 10s.4 2.9 1.2 4.2 1.9 2.3 3.2 2.9c1.3.6 2.8.9 4.3.7 1.5-.2 2.9-.7 4-1.6-.9-.7-1.7-1.7-2.2-2.7-.5-1.1-.8-2.3-.8-3.5z" fill="#eb001b"/><path d="M34.7 10c0 1.5-.4 2.9-1.2 4.2-.8 1.3-1.9 2.3-3.2 2.9-1.3.6-2.8.9-4.3.7-1.5-.2-2.9-.7-4-1.6.9-.7 1.7-1.7 2.2-2.7.5-1.1.8-2.2.8-3.4 0-1.2-.3-2.4-.8-3.4-.5-1.1-1.3-2-2.2-2.7 1.2-.9 2.6-1.5 4-1.6 1.5-.4 3-.1 4.3.5 1.3.6 2.4 1.6 3.2 2.9.8 1.3 1.2 2.7 1.2 4.2z" fill="#f79e1b"/></svg>