<svg version="1.1" id="Layer_1" xmlns="http://www.w3.org/2000/svg" xmlns:xlink="http://www.w3.org/1999/xlink" x="0" y="0" viewBox="0 0 44 20" xml:space="preserve"><style>.st2{fill:#fff}.st3{fill:#3089c0}.st4{fill:#099dd9}</style><defs><path id="SVGID_1_" d="M8.7 2h26.7v16H8.7z"/></defs><clipPath id="SVGID_2_"><use xlink:href="#SVGID_1_" overflow="visible"/></clipPath><g clip-path="url(#SVGID_2_)"><path d="M10.4 2h23.3c.9 0 1.7.7 1.7 1.5v12.9c0 .8-.7 1.5-1.7 1.5H10.4c-.9 0-1.7-.7-1.7-1.5V3.5c0-.8.7-1.5 1.7-1.5z" fill-rule="evenodd" clip-rule="evenodd" fill="#099dd9"/><path class="st2" d="M15.1 13l-.6-1.1H13l-.4 1.1H9.4l3.3-6.4H15l3.4 6.4h-3.3z"/><path class="st2" d="M16 13V6.5h3.3l.5 1.5.6-1.5h3.3V13H16z"/><path class="st2" d="M22.4 13V6.5h6.2V9h-.2v1.5h.3V13h-6.3z"/><path class="st2" d="M31.3 13l-1-1.2-1 1.2h-3.6l2.8-3.3-2.6-3.1h3.6l.8 1.1.9-1.1h3.5l-2.5 3.1L35 13h-3.7z"/><path class="st3" d="M23.2 12.2V7.4h4.6v.8h-3.4v1.1h3.1v.7h-3.1v1.3h3.4v.8h-4.6z"/><path class="st3" d="M27.5 12.2l2.1-2.5-1.9-2.3h1.5l1.2 1.5 1.2-1.5h1.5l-2 2.4 2.1 2.4h-1.5l-1.4-1.6-1.3 1.6h-1.5z"/><path class="st4" d="M17 12.2h-1.3l-.6-1.1h-2.5l-.5 1.1h-1.4l2.5-4.8h1.3l2.5 4.8zm-2.3-2l-.8-1.7-.9 1.8 1.7-.1z"/><path class="st4" d="M16.8 12.2V7.4h1.9l1.1 3.2L21 7.4h1.9v4.8h-1.1V8.3L20.6 12h-1.2L18 8.3V12l-1.2.2z"/></g></svg>