<svg version="1.1" id="Layer_1" xmlns="http://www.w3.org/2000/svg" xmlns:xlink="http://www.w3.org/1999/xlink" x="0" y="0" viewBox="0 0 44 20" xml:space="preserve"><style>.st1{fill:#00579f}</style><defs><path id="SVGID_1_" d="M3.5 4h37v12h-37z"/></defs><clipPath id="SVGID_2_"><use xlink:href="#SVGID_1_" overflow="visible"/></clipPath><g clip-path="url(#SVGID_2_)"><path class="st1" d="M19.5 15.8h-3l1.9-11.6h3l-1.9 11.6zM30.4 4.5c-.6-.3-1.5-.5-2.7-.5-3 0-5 1.6-5.1 3.9 0 1.7 1.5 2.6 2.6 3.2 1.2.6 1.6.9 1.6 1.4 0 .8-.9 1.1-1.8 1.1-1.2 0-1.8-.2-2.8-.6l-.4-.2-.4 2.6c.7.3 2 .6 3.3.6 3.1 0 5.2-1.6 5.2-4 0-1.3-.8-2.3-2.5-3.2-1-.5-1.7-.9-1.7-1.4 0-.5.5-1 1.7-1 1 0 1.7.2 2.2.4l.4.2.4-2.5zM34.4 11.7c.2-.7 1.2-3.3 1.2-3.3s.2-.7.4-1.1l.2 1s.6 2.8.7 3.4h-2.5zm3.7-7.5h-2.3c-.7 0-1.3.2-1.6 1l-4.5 10.7h3.1s.5-1.4.6-1.7h3.8c.1.4.4 1.7.4 1.7h2.8L38.1 4.2zM14 4.2l-2.9 7.9-.3-1.6c-.5-1.9-2.2-3.9-4.1-4.9l2.7 10.2h3.2l4.7-11.6H14z"/><path d="M8.4 4.2H3.5v.2c3.8 1 6.3 3.3 7.3 6.1l-1-5.3c-.2-.8-.8-1-1.4-1z" fill="#faa61a"/></g></svg>