<svg version="1.1" id="Layer_1" xmlns="http://www.w3.org/2000/svg" x="0" y="0" viewBox="0 0 44 20" xml:space="preserve"><style>.st2{fill:#1b3281}</style><path d="M38.3 5.9l2.1 4.1-4.4 4.1 2.3-8.2z" fill="#008c44"/><path d="M36.9 5.9L39 10l-4.4 4.1 2.3-8.2z" fill="#f47920"/><path class="st2" d="M3.6 12.6l2.1-7.5H9c1 0 1.7.2 2.1.5.3.3.4.9.2 1.6-.1.5-.3.8-.6 1.1-.3.3-.6.5-1 .7.4.1.6.3.7.5.1.3.1.6 0 1.1l-.3 1c-.1.3-.1.4.1.5l-.1.3H7.8v-.5c0-.1 0-.2.1-.3l.2-.7c.1-.4.1-.7 0-.8-.1-.2-.3-.2-.7-.2h-.9l-.7 2.6H3.6zM7 8.4h1c.4 0 .6-.1.8-.2.1-.1.2-.3.3-.5.1-.3.1-.4 0-.5C9 7 8.7 7 8.3 7h-.9L7 8.4zM17.4 7.1l-1.5 5.5H14l.2-.8c-.3.3-.7.6-1 .7-.3.2-.7.2-1.1.2-.3 0-.6-.1-.8-.2-.2-.1-.4-.3-.5-.5-.1-.2-.1-.4-.1-.7 0-.3.1-.8.3-1.4l.8-2.9h2l-.6 3c-.1.4-.1.7-.1.9.1.2.2.2.5.2s.5-.1.6-.3c.2-.2.3-.5.4-.8l.8-2.8h2zM16.7 12.6l2.1-7.5h2.8c.6 0 1.1 0 1.5.1.3.1.6.2.8.4.3.2.4.5.5.9.1.3 0 .7-.1 1.2-.3.9-.7 1.5-1.3 2-.6.4-1.3.7-2.2.7h-1.3l-.6 2.3h-2.2zM20 8.5h.7c.5 0 .8-.1 1-.2.2-.1.3-.3.4-.5.1-.3.1-.5-.1-.6-.1-.1-.4-.2-.8-.2h-.7L20 8.5zM26.6 12.6v-.5c-.3.2-.7.4-1 .5-.3.1-.7.2-1.1.2-.6 0-1-.2-1.2-.5-.2-.3-.3-.7-.1-1.3.1-.5.4-.9.8-1.2.4-.3 1-.4 1.9-.6.1 0 .3 0 .5-.1.7-.1 1-.3 1.1-.5 0-.2 0-.3-.1-.3-.1-.1-.3-.1-.5-.1s-.4 0-.5.1c-.1.1-.2.2-.3.4h-2c.2-.6.5-1.1 1.1-1.4.5-.3 1.3-.5 2.2-.5.4 0 .8 0 1.1.1.3.1.6.2.7.3.2.2.3.4.3.6 0 .2 0 .5-.1.9l-.8 3.3v.3c0 .1.1.1.1.2v.2h-2.1zm.5-2.4c-.2.1-.5.2-.8.3-.5.1-.9.3-.9.6v.4c.1.1.2.1.4.1.3 0 .6-.1.8-.3.2-.2.4-.4.5-.8V10.2zM28.7 14.8l.4-1.6h.6c.2 0 .3 0 .5-.1.1-.1.2-.2.2-.4v-.2-.3l-.3-5h2.1v3.3L34 7.2h1.9l-3.2 5.5c-.4.6-.6 1-.8 1.3-.2.2-.3.4-.5.5-.2.2-.4.3-.6.3-.2.1-.6.1-1.1.1h-.5c-.2-.1-.4-.1-.5-.1z"/></svg>